<svg version="1.1" xmlns="http://www.w3.org/2000/svg" viewBox="0 0 512 512" xmlns:xlink="http://www.w3.org/1999/xlink" enable-background="new 0 0 512 512">
  <path d="M 254 46 c -114 0 -209 93 -209 208 s 93 208 209 208 s 209 -93 209 -208 s -93 -208 -209 -208 v 0 z m 0 459 c -138 0 -251 -111 -251 -250 s 111 -250 251 -250 s 251 111 251 250 s -111 250 -251 250 z"></path>
  <path d="M 333 286 h -79 c -12 0 -22 -11 -22 -24 v -161 c 0 -13 10 -24 22 -24 c 12 0 22 11 22 24 v 135 h 57 c 12 0 22 11 22 24 s -10 24 -22 24 z"></path>
</svg>